# xmcd
#
# Track frame offsets:
#	182
#	17002
#	35700
#	56212
#
# Disc length: 996 seconds
#
# Revision: 1
# Processed by: cddbd v1.4PL0 Copyright (c) Steve Scherf et al.
# Submitted via: EasyCDDAExtractor 5.0.6
#
DISCID=3103e204
DTITLE=The Tony Rich Project - Leavin'
DYEAR=1996
DGENRE=R&B
TTITLE0=Leavin' (Album Version)
TTITLE1=Leavin' ( Groove Remix)
TTITLE2=You're A Winner 
TTITLE3=Leavin' ( Groove instrumental)
EXTD=eu/german maxi single\n
EXTT0=
EXTT1=
EXTT2=
EXTT3=
PLAYORDER=
